<svg xmlns="http://www.w3.org/2000/svg" width="1024" height="1024" viewBox="0 0 1024 1024">
<g>
<path d="M 593.83 570.48 C588.66,571.70 578.20,571.97 536.63,571.99 C488.52,572.00 485.83,571.91 487.13,570.27 C490.27,566.30 515.79,537.40 517.11,536.31 C518.14,535.47 527.97,535.04 551.53,534.81 C584.02,534.50 584.56,534.47 588.95,532.13 C591.40,530.82 594.32,528.57 595.44,527.13 C596.55,525.68 598.71,523.39 600.23,522.03 C602.87,519.67 603.00,519.13 603.00,510.53 C603.00,496.69 601.02,493.35 580.61,472.67 C571.48,463.42 564.00,455.20 564.00,454.42 C564.00,453.64 563.21,453.01 562.25,453.01 C557.61,453.04 545.51,434.91 542.53,423.45 C540.55,415.83 540.56,400.13 542.55,392.46 C544.47,385.10 550.92,372.94 555.78,367.54 C565.10,357.20 579.07,349.07 591.06,347.03 C595.22,346.32 611.95,346.03 638.34,346.22 L 679.17 346.50 L 671.84 354.92 C667.80,359.55 660.86,367.42 656.42,372.42 L 648.34 381.50 L 623.42 382.00 C601.91,382.43 598.05,382.75 595.20,384.30 C586.30,389.16 578.71,401.35 578.58,411.00 C578.51,415.61 578.22,416.48 576.74,416.36 C572.82,416.05 566.17,430.54 565.27,441.38 C564.74,447.75 564.84,448.36 566.23,447.21 C567.09,446.51 568.09,444.35 568.45,442.41 C568.81,440.48 570.42,436.83 572.03,434.29 C573.63,431.76 575.44,428.19 576.05,426.35 C576.66,424.51 577.58,423.00 578.10,423.00 C580.85,423.00 588.75,429.93 609.62,450.65 C630.68,471.54 633.03,474.23 636.30,481.03 C640.91,490.63 642.16,496.36 642.08,507.65 C641.96,524.45 638.45,535.35 629.24,547.50 C620.38,559.18 608.19,567.09 593.83,570.48 ZM 234.58 573.23 C233.03,574.29 195.23,574.18 194.57,573.12 C194.27,572.63 198.72,564.20 204.46,554.37 C210.20,544.54 220.21,527.17 226.70,515.76 L 238.50 495.02 L 326.46 495.26 L 414.41 495.50 L 425.03 514.00 C430.87,524.17 440.85,541.50 447.22,552.50 C453.58,563.50 458.59,572.84 458.34,573.25 C458.09,573.66 448.71,574.00 437.50,574.00 L 417.11 574.00 L 411.42 563.75 C408.30,558.11 402.86,548.51 399.36,542.40 L 392.98 531.30 L 330.58 530.58 C296.26,530.18 266.17,530.15 263.72,530.52 L 259.27 531.19 L 247.46 551.84 C240.97,563.20 235.17,572.83 234.58,573.23 ZM 362.54 456.75 C362.06,458.36 361.10,459.00 359.18,458.99 C354.04,458.96 351.78,456.72 345.58,445.50 C334.86,426.09 327.53,414.04 326.44,414.02 C325.44,414.00 318.32,425.23 313.13,435.00 C306.48,447.54 300.89,453.66 297.31,452.29 C295.12,451.45 292.00,444.46 291.83,439.98 C291.74,437.75 291.26,435.66 290.75,435.35 C290.25,435.03 289.94,431.57 290.07,427.64 C290.20,423.71 289.96,418.78 289.53,416.67 C288.58,412.01 290.15,408.00 292.92,408.00 C294.00,408.00 295.55,407.05 296.37,405.88 C297.18,404.72 299.24,402.92 300.95,401.88 C302.65,400.85 304.46,398.92 304.96,397.60 C305.47,396.28 306.41,394.86 307.06,394.46 C309.50,392.96 315.74,393.89 323.58,396.92 C330.74,399.69 332.52,400.93 339.09,407.77 C343.18,412.02 347.72,416.97 349.20,418.76 C350.68,420.55 354.72,423.50 358.19,425.32 C371.36,432.21 373.00,433.61 373.00,437.87 C373.00,441.73 370.38,446.67 365.51,452.00 C364.25,453.38 362.92,455.51 362.54,456.75 ZM 665.20 485.55 C665.49,489.14 663.69,491.57 662.77,488.82 C662.54,488.11 661.07,487.64 659.42,487.76 C655.48,488.04 654.70,487.33 652.57,481.50 C651.57,478.75 649.35,474.02 647.64,471.00 C645.93,467.98 644.52,465.18 644.51,464.79 C644.51,464.40 643.60,463.41 642.50,462.57 C641.40,461.74 640.77,461.05 641.10,461.03 C641.43,461.01 637.38,456.63 632.10,451.29 C626.82,445.95 624.81,443.74 627.63,446.39 C632.91,451.32 634.83,451.32 632.95,446.38 C632.04,443.96 632.20,443.36 634.16,441.88 C635.93,440.54 636.40,439.27 636.27,436.09 C636.13,432.49 636.41,431.94 638.65,431.37 C640.05,431.02 642.99,428.97 645.19,426.81 C648.71,423.37 649.15,422.42 648.84,419.09 C648.56,416.20 648.83,415.32 649.98,415.40 C650.80,415.46 651.92,414.50 652.47,413.27 C653.65,410.59 655.81,409.60 657.45,410.96 C658.11,411.50 660.85,412.13 663.53,412.36 C666.22,412.58 668.59,413.27 668.79,413.88 C669.00,414.50 669.78,415.00 670.53,415.00 C671.50,415.00 670.90,417.12 668.48,422.25 C663.04,433.77 661.59,440.74 661.69,455.00 C661.77,465.44 662.20,468.78 664.28,475.24 C665.66,479.50 666.36,482.72 665.84,482.40 C665.29,482.06 665.02,483.38 665.20,485.55 ZM 509.07 455.59 C511.13,458.06 509.58,457.16 499.44,449.96 C490.49,443.60 489.56,442.64 489.83,440.08 C490.29,435.64 487.21,426.36 481.86,416.10 C477.42,407.58 477.09,406.50 478.36,404.60 C479.46,402.93 480.87,402.47 485.13,402.37 C491.60,402.22 493.97,403.97 496.54,410.82 C497.51,413.40 499.13,416.69 500.15,418.15 C501.17,419.61 502.00,421.05 502.00,421.35 C502.00,422.76 508.28,431.00 509.35,431.00 C512.24,431.00 514.37,435.50 515.02,442.97 C515.75,451.29 515.25,452.57 510.88,453.53 C508.46,454.06 508.12,454.44 509.07,455.59 ZM 691.55 495.83 C695.20,499.77 698.03,503.00 697.83,503.00 C697.63,503.00 695.30,500.86 692.64,498.25 C688.77,494.45 687.94,493.97 688.51,495.88 C688.96,497.40 688.85,498.02 688.19,497.62 C687.63,497.27 687.00,497.50 686.79,498.12 C686.09,500.22 680.34,493.23 676.26,485.32 C670.97,475.05 668.78,465.88 668.78,453.93 C668.78,442.94 671.24,432.42 676.04,422.93 C678.73,417.60 679.26,417.07 681.03,418.01 C682.11,418.59 683.00,419.56 683.00,420.16 C683.00,420.83 683.65,420.72 684.71,419.87 C685.84,418.96 685.65,419.60 684.14,421.76 C676.62,432.47 672.96,454.51 676.46,468.00 C679.22,478.65 684.28,487.97 691.55,495.83 ZM 817.25 428.26 L 824.50 428.60 L 817.29 428.80 C809.67,429.01 808.72,428.48 807.85,423.50 C807.66,422.40 807.25,421.27 806.95,421.00 C805.56,419.75 801.75,412.73 802.81,413.38 C803.59,413.87 804.00,413.37 804.00,411.94 C804.00,410.28 803.54,409.89 802.05,410.28 C800.75,410.62 799.60,410.03 798.61,408.54 C796.13,404.74 789.24,397.09 788.75,397.59 C788.49,397.84 787.66,397.25 786.89,396.27 C785.63,394.66 785.66,394.63 787.23,395.86 C788.76,397.06 789.08,396.91 789.96,394.61 C790.74,392.54 791.62,392.00 794.17,392.00 C796.75,392.00 798.34,393.00 802.09,397.00 C804.67,399.75 807.28,402.00 807.89,402.00 C808.50,402.00 809.00,402.44 809.00,402.97 C809.00,403.50 808.29,403.66 807.42,403.33 C806.45,402.96 806.78,403.74 808.28,405.36 C809.72,406.91 811.80,408.00 813.34,408.00 C815.43,408.00 816.11,408.64 816.82,411.25 C817.30,413.04 817.32,415.51 816.87,416.74 C815.79,419.70 816.64,421.66 819.32,422.42 C821.47,423.03 821.48,423.05 819.53,424.54 C818.44,425.37 816.98,425.82 816.28,425.55 C815.58,425.28 815.00,425.51 815.00,426.05 C815.00,426.59 813.88,426.84 812.50,426.59 C811.12,426.34 810.00,426.53 810.00,427.02 C810.00,427.51 813.26,428.07 817.25,428.26 ZM 765.55 431.55 C764.00,433.09 761.95,434.00 760.00,434.00 C756.24,434.00 752.00,430.12 752.00,426.68 C752.00,422.66 755.63,419.00 759.62,419.00 C763.85,419.00 768.00,422.72 768.00,426.50 C768.00,427.92 766.90,430.20 765.55,431.55 ZM 762.79 491.36 C758.79,492.43 757.44,492.07 754.69,489.20 C751.39,485.75 751.28,482.94 754.33,479.40 C757.47,475.76 762.57,475.80 765.75,479.50 C766.99,480.93 768.00,482.78 768.00,483.61 C768.00,486.41 765.09,490.74 762.79,491.36 ZM 778.89 509.50 C775.53,511.98 772.40,514.00 771.93,514.00 C771.03,514.00 769.00,510.73 769.00,509.28 C769.00,508.81 770.25,507.70 771.77,506.80 C773.29,505.90 776.78,503.23 779.52,500.86 C782.26,498.50 783.68,497.52 782.68,498.68 C781.55,500.01 781.26,501.04 781.90,501.44 C782.59,501.87 782.60,502.92 781.91,504.74 C780.91,507.38 780.92,507.39 782.95,505.55 C784.08,504.53 785.00,503.99 785.00,504.35 C785.00,504.71 782.25,507.03 778.89,509.50 ZM 698.00 403.41 C698.00,404.69 695.93,407.60 692.93,410.54 C690.15,413.27 688.01,414.83 688.18,414.00 C688.36,413.17 687.95,412.61 687.29,412.74 C686.58,412.88 686.31,412.35 686.64,411.49 C687.46,409.35 686.03,409.65 683.06,412.23 C681.65,413.46 683.88,411.04 688.00,406.85 C695.64,399.09 698.00,398.28 698.00,403.41 ZM 791.00 494.00 C791.00,495.48 789.42,495.21 788.00,493.50 C786.86,492.13 787.29,491.57 789.25,491.88 C789.66,491.95 790.00,490.88 790.00,489.50 C790.00,488.12 790.48,487.00 791.06,487.00 C791.64,487.00 791.87,486.60 791.56,486.10 C791.26,485.61 791.61,484.98 792.35,484.70 C795.96,483.31 797.72,489.50 794.75,493.14 C793.69,494.44 793.12,494.94 793.47,494.25 C793.86,493.51 793.48,493.00 792.56,493.00 C791.70,493.00 791.00,493.45 791.00,494.00 Z" fill="rgb(17,151,179)"/>
<path d="M 594.50 575.50 C588.84,576.69 576.72,576.97 531.08,576.98 L 474.65 577.00 L 476.65 574.75 C479.74,571.27 496.53,551.92 506.25,540.65 L 515.00 530.50 L 583.83 529.50 L 588.17 526.49 C594.56,522.06 598.25,514.37 597.79,506.48 C597.59,503.02 596.60,498.90 595.47,496.79 C594.39,494.77 583.17,482.54 570.54,469.61 C544.77,443.22 541.48,438.60 538.03,423.88 C532.93,402.16 538.40,379.84 552.71,364.03 C562.28,353.45 571.10,347.79 584.15,343.84 C591.24,341.69 593.24,341.59 640.75,341.24 C667.84,341.04 690.00,341.16 690.00,341.50 C690.00,341.84 683.59,349.37 675.75,358.22 C667.91,367.07 659.16,377.06 656.29,380.41 L 651.08 386.50 L 599.17 387.50 L 594.83 390.54 C588.50,395.00 585.51,400.93 585.54,409.00 C585.56,413.34 586.18,416.66 587.41,419.00 C588.42,420.92 600.13,433.52 613.42,447.00 C635.33,469.21 637.89,472.16 640.75,478.50 C645.49,489.01 647.10,496.28 647.15,507.50 C647.21,519.88 645.28,528.42 639.87,539.81 C636.46,546.97 634.21,550.01 627.11,557.10 C620.24,563.96 616.78,566.54 610.00,569.87 C605.33,572.16 598.35,574.70 594.50,575.50 ZM 593.83 570.48 C608.19,567.09 620.38,559.18 629.24,547.50 C638.45,535.35 641.96,524.45 642.08,507.65 C642.16,496.36 640.91,490.63 636.30,481.03 C633.03,474.23 630.68,471.54 609.62,450.65 C588.75,429.93 580.85,423.00 578.10,423.00 C577.58,423.00 576.66,424.51 576.05,426.35 C575.44,428.19 573.63,431.76 572.03,434.29 C570.42,436.83 568.81,440.48 568.45,442.41 C568.09,444.35 567.09,446.51 566.23,447.21 C564.84,448.36 564.74,447.75 565.27,441.38 C566.17,430.54 572.82,416.05 576.74,416.36 C578.22,416.48 578.51,415.61 578.58,411.00 C578.71,401.35 586.30,389.16 595.20,384.30 C598.05,382.75 601.91,382.43 623.42,382.00 L 648.34 381.50 L 656.42 372.42 C660.86,367.42 667.80,359.55 671.84,354.92 L 679.17 346.50 L 638.34 346.22 C611.95,346.03 595.22,346.32 591.06,347.03 C579.07,349.07 565.10,357.20 555.78,367.54 C550.92,372.94 544.47,385.10 542.55,392.46 C540.56,400.13 540.55,415.83 542.53,423.45 C545.51,434.91 557.61,453.04 562.25,453.01 C563.21,453.01 564.00,453.64 564.00,454.42 C564.00,455.20 571.48,463.42 580.61,472.67 C601.02,493.35 603.00,496.69 603.00,510.53 C603.00,519.13 602.87,519.67 600.23,522.03 C598.71,523.39 596.55,525.68 595.44,527.13 C594.32,528.57 591.40,530.82 588.95,532.13 C584.56,534.47 584.02,534.50 551.53,534.81 C527.97,535.04 518.14,535.47 517.11,536.31 C515.79,537.40 490.27,566.30 487.13,570.27 C485.83,571.91 488.52,572.00 536.63,571.99 C578.20,571.97 588.66,571.70 593.83,570.48 ZM 262.70 535.50 L 238.50 577.94 L 212.14 577.97 C187.83,578.00 185.84,577.87 186.43,576.31 C186.79,575.39 193.78,563.12 201.97,549.06 C210.16,535.00 221.10,516.08 226.28,507.00 L 235.69 490.50 L 326.66 490.24 L 417.62 489.99 L 419.41 493.74 C420.40,495.81 426.04,505.82 431.94,516.00 C457.40,559.88 466.03,574.91 466.60,576.41 C467.15,577.84 464.56,578.00 440.76,578.00 L 414.31 578.00 L 405.99 563.25 C401.41,555.14 395.92,545.46 393.79,541.74 L 389.90 534.99 ZM 509.07 455.59 C508.12,454.44 508.46,454.06 510.88,453.53 C515.25,452.57 515.75,451.29 515.02,442.97 C514.37,435.50 512.24,431.00 509.35,431.00 C508.28,431.00 502.00,422.76 502.00,421.35 C502.00,421.05 501.17,419.61 500.15,418.15 C499.13,416.69 497.51,413.40 496.54,410.82 C493.97,403.97 491.60,402.22 485.13,402.37 C480.87,402.47 479.46,402.93 478.36,404.60 C477.09,406.50 477.42,407.58 481.86,416.10 C487.21,426.36 490.29,435.64 489.83,440.08 C489.60,442.27 490.24,443.29 496.02,447.50 C494.25,446.25 492.58,445.06 491.28,444.10 C485.57,439.87 484.98,439.08 483.95,434.21 C483.34,431.29 481.00,425.22 478.76,420.71 C471.63,406.35 457.61,394.75 441.00,389.43 C436.47,387.99 430.64,387.60 407.92,387.25 L 380.34 386.82 L 367.69 364.78 C360.73,352.66 355.24,342.42 355.49,342.01 C356.34,340.64 432.76,341.97 442.09,343.52 C459.41,346.39 474.58,353.12 489.50,364.54 C497.94,371.00 501.95,375.13 509.37,385.00 C537.75,422.73 539.30,474.65 513.23,513.98 C507.16,523.14 494.30,536.70 487.00,541.64 C484.52,543.31 480.39,545.91 477.82,547.40 L 473.13 550.11 L 467.40 540.31 C464.25,534.91 459.05,526.03 455.85,520.57 L 450.02 510.64 L 456.02 507.25 C462.82,503.42 472.52,494.83 476.10,489.47 C477.68,487.10 484.62,481.77 496.50,473.80 C506.40,467.16 514.72,461.52 515.00,461.26 C515.44,460.86 514.97,460.35 509.74,456.83 C510.04,456.86 509.76,456.41 509.07,455.59 ZM 234.58 573.23 C235.17,572.83 240.97,563.20 247.46,551.84 L 259.27 531.19 L 263.72 530.52 C266.17,530.15 296.26,530.18 330.58,530.58 L 392.98 531.30 L 399.36 542.40 C402.86,548.51 408.30,558.11 411.42,563.75 L 417.11 574.00 L 437.50 574.00 C448.71,574.00 458.09,573.66 458.34,573.25 C458.59,572.84 453.58,563.50 447.22,552.50 C440.85,541.50 430.87,524.17 425.03,514.00 L 414.41 495.50 L 326.46 495.26 L 238.50 495.02 L 226.70 515.76 C220.21,527.17 210.20,544.54 204.46,554.37 C198.72,564.20 194.27,572.63 194.57,573.12 C195.23,574.18 233.03,574.29 234.58,573.23 ZM 301.47 465.75 L 298.82 470.00 L 273.41 470.00 C255.25,470.00 248.00,469.68 248.00,468.87 C248.00,468.26 255.36,454.87 264.36,439.12 C273.36,423.38 289.79,394.63 300.88,375.24 C311.96,355.85 322.02,337.96 323.22,335.48 C324.43,333.00 325.86,331.12 326.40,331.30 C326.94,331.48 335.98,346.67 346.48,365.06 C356.99,383.45 374.62,414.34 385.68,433.69 C396.74,453.05 405.53,469.14 405.22,469.44 C404.38,470.28 355.67,470.08 354.39,469.23 C353.45,468.61 346.02,456.08 330.58,429.11 C328.89,426.15 327.06,423.67 326.51,423.61 C325.97,423.55 320.71,432.05 314.83,442.50 C308.94,452.95 302.93,463.41 301.47,465.75 ZM 665.20 485.55 C665.02,483.38 665.29,482.06 665.84,482.40 C666.36,482.72 665.66,479.50 664.28,475.24 C662.65,470.19 662.04,467.05 661.81,460.94 C662.16,465.91 662.87,470.54 663.92,474.01 C673.71,506.41 698.75,526.68 733.72,530.51 C746.50,531.91 767.25,526.47 779.00,518.64 C791.33,510.42 801.02,499.68 806.60,488.06 L 809.50 482.03 L 829.75 482.01 L 850.00 482.00 L 850.00 488.00 L 839.75 488.05 L 829.50 488.10 L 825.32 496.80 C823.02,501.58 820.23,506.85 819.13,508.50 L 817.13 511.50 L 822.12 520.33 C826.34,527.79 826.92,529.40 825.82,530.72 C825.11,531.57 819.32,536.89 812.96,542.53 L 801.40 552.79 L 792.95 546.40 C788.30,542.88 784.28,540.14 784.00,540.30 C779.59,542.92 768.93,547.08 760.44,549.49 C759.85,549.66 758.54,554.34 757.52,559.90 L 755.67 570.00 L 720.25 570.00 L 718.47 561.25 C717.49,556.44 716.34,551.81 715.92,550.96 C715.49,550.11 712.53,548.59 709.33,547.58 C706.12,546.57 701.08,544.68 698.13,543.37 C695.17,542.07 692.16,541.00 691.44,541.00 C690.72,541.00 686.80,543.64 682.74,546.88 L 675.34 552.75 L 665.42 544.30 C659.96,539.65 654.93,535.29 654.24,534.63 C653.23,533.65 653.28,532.53 654.48,528.96 C655.83,524.96 658.10,513.06 658.00,510.50 C657.60,500.34 655.95,491.08 653.06,482.80 C654.84,487.43 655.79,488.02 659.42,487.76 C661.07,487.64 662.54,488.11 662.77,488.82 C663.69,491.57 665.49,489.14 665.20,485.55 ZM 817.25 428.26 C813.26,428.07 810.00,427.51 810.00,427.02 C810.00,426.53 811.12,426.34 812.50,426.59 C813.88,426.84 815.00,426.59 815.00,426.05 C815.00,425.51 815.58,425.28 816.28,425.55 C816.98,425.82 818.44,425.37 819.53,424.54 C821.48,423.05 821.47,423.03 819.32,422.42 C816.64,421.66 815.79,419.70 816.87,416.74 C817.32,415.51 817.30,413.04 816.82,411.25 C816.11,408.64 815.43,408.00 813.34,408.00 C811.80,408.00 809.72,406.91 808.28,405.36 C806.78,403.74 806.45,402.96 807.42,403.33 C808.29,403.66 809.00,403.50 809.00,402.97 C809.00,402.44 808.50,402.00 807.89,402.00 C807.28,402.00 804.67,399.75 802.09,397.00 C798.34,393.00 796.75,392.00 794.17,392.00 C791.62,392.00 790.74,392.54 789.96,394.61 C789.08,396.91 788.76,397.06 787.23,395.86 C785.67,394.63 785.63,394.66 786.88,396.26 C778.20,388.77 768.18,383.17 758.00,380.40 C748.93,377.93 727.92,377.85 719.00,380.25 C703.88,384.33 687.92,394.47 678.48,406.00 C673.40,412.21 666.84,424.83 664.02,433.55 C665.06,430.00 666.51,426.43 668.48,422.25 C670.90,417.12 671.50,415.00 670.53,415.00 C669.78,415.00 669.00,414.50 668.79,413.88 C668.59,413.27 666.22,412.58 663.53,412.36 C660.85,412.13 658.11,411.50 657.45,410.96 C655.81,409.60 653.65,410.59 652.47,413.27 C651.92,414.50 650.80,415.46 649.98,415.40 C648.83,415.32 648.56,416.20 648.84,419.09 C649.15,422.42 648.71,423.37 645.19,426.81 C642.99,428.97 640.05,431.02 638.65,431.37 C636.41,431.94 636.13,432.49 636.27,436.09 C636.40,439.27 635.93,440.54 634.16,441.88 C632.20,443.36 632.04,443.96 632.95,446.38 C634.83,451.32 632.91,451.32 627.63,446.39 C624.81,443.74 626.82,445.95 632.10,451.29 C637.00,456.25 640.84,460.38 641.10,460.96 C640.84,460.39 637.09,456.46 632.31,451.75 L 622.92 442.49 L 624.21 434.00 L 625.50 425.50 L 635.60 424.60 L 645.70 423.71 L 646.94 420.10 C648.54,415.43 654.86,402.98 656.73,400.82 C657.61,399.80 657.92,398.31 657.50,397.01 C656.96,395.30 658.38,393.17 664.69,386.19 C669.01,381.41 675.18,374.46 678.40,370.75 C681.61,367.04 684.72,364.00 685.31,364.00 C685.89,364.00 687.32,364.89 688.47,365.98 C690.57,367.95 690.59,367.95 697.91,364.97 C701.95,363.33 707.63,361.29 710.55,360.44 L 715.86 358.90 L 717.36 352.20 C718.19,348.51 719.17,343.81 719.54,341.75 L 720.22 338.00 L 755.79 338.00 L 757.69 348.12 L 759.59 358.24 L 768.54 361.45 C773.47,363.22 779.00,365.44 780.83,366.40 L 784.15 368.13 L 791.72 362.43 C795.89,359.29 799.88,356.68 800.59,356.61 C801.98,356.49 827.00,378.76 827.00,380.11 C827.00,380.55 824.78,384.77 822.06,389.50 L 817.12 398.08 L 819.54 401.65 C821.93,405.18 825.34,411.98 828.35,419.25 L 829.90 423.00 L 850.00 423.00 L 850.00 429.00 L 830.04 429.00 L 829.09 429.00 C822.72,429.00 818.34,429.00 815.32,428.84 C815.92,428.83 816.57,428.82 817.29,428.80 L 824.50 428.60 ZM 653.20 720.88 C645.92,722.42 629.63,722.17 623.10,720.42 C610.73,717.09 604.24,711.42 599.89,700.14 C596.69,691.87 596.75,674.00 599.99,665.58 C602.99,657.79 608.50,651.97 616.25,648.39 C622.34,645.57 622.92,645.50 639.00,645.50 C655.15,645.50 655.63,645.56 661.88,648.45 C673.04,653.60 678.50,662.98 679.70,679.08 C681.41,702.10 672.04,716.88 653.20,720.88 ZM 492.38 718.08 C486.92,720.23 484.76,720.42 462.00,720.78 C448.52,721.00 437.16,720.83 436.75,720.42 C436.34,720.01 436.00,703.06 436.00,682.76 L 436.00 645.85 L 462.25 646.18 C487.10,646.48 488.76,646.62 493.44,648.78 C501.37,652.44 504.64,655.53 508.19,662.73 C511.44,669.34 511.50,669.69 511.50,682.98 C511.50,695.78 511.35,696.83 508.61,702.76 C505.10,710.37 500.19,715.00 492.38,718.08 ZM 579.26 718.15 C574.69,720.41 573.45,720.51 548.25,720.81 L 522.00 721.12 L 522.00 706.10 L 545.09 705.80 C567.98,705.50 568.20,705.48 570.09,703.14 C572.36,700.33 572.56,696.24 570.55,693.38 C569.22,691.48 567.79,691.26 553.70,690.74 C536.20,690.10 530.30,688.39 525.05,682.40 C518.42,674.85 518.28,660.58 524.75,652.89 C530.10,646.53 532.64,646.05 560.75,646.02 L 586.00 646.00 L 586.00 661.00 L 564.00 661.00 C543.33,661.00 541.88,661.12 540.00,663.00 C537.48,665.52 537.44,669.09 539.91,672.14 C541.73,674.39 542.54,674.52 557.66,675.04 C570.71,675.49 574.30,675.95 578.03,677.64 C586.76,681.60 590.64,689.25 589.73,700.71 C589.05,709.24 585.56,715.05 579.26,718.15 ZM 359.95 714.00 L 357.31 720.50 L 348.16 720.79 C342.12,720.98 339.00,720.71 339.00,720.00 C339.00,718.73 345.87,703.50 361.34,670.50 L 372.59 646.50 L 393.67 645.94 L 399.49 658.22 C414.82,690.58 428.00,719.20 428.00,720.13 C428.00,721.18 410.94,721.28 409.45,720.23 C408.87,719.83 407.25,716.80 405.85,713.50 L 403.29 707.50 L 386.64 707.23 C377.49,707.08 370.00,706.57 370.00,706.11 C370.00,705.65 371.35,702.29 373.01,698.64 L 376.02 692.00 L 386.01 692.00 C391.50,692.00 396.00,691.82 396.00,691.59 C396.00,690.31 384.04,664.51 383.34,664.29 C382.55,664.04 365.69,699.86 359.95,714.00 ZM 362.54 456.75 C362.92,455.51 364.25,453.38 365.51,452.00 C370.38,446.67 373.00,441.73 373.00,437.87 C373.00,433.61 371.36,432.21 358.19,425.32 C354.72,423.50 350.68,420.55 349.20,418.76 C347.72,416.97 343.18,412.02 339.09,407.77 C332.52,400.93 330.74,399.69 323.58,396.92 C315.74,393.89 309.50,392.96 307.06,394.46 C306.41,394.86 305.47,396.28 304.96,397.60 C304.46,398.92 302.65,400.85 300.95,401.88 C299.24,402.92 297.18,404.72 296.37,405.88 C295.55,407.05 294.00,408.00 292.92,408.00 C290.15,408.00 288.58,412.01 289.53,416.67 C289.96,418.78 290.20,423.71 290.07,427.64 C289.94,431.57 290.25,435.03 290.75,435.35 C291.26,435.66 291.74,437.75 291.83,439.98 C292.00,444.46 295.12,451.45 297.31,452.29 C300.89,453.66 306.48,447.54 313.13,435.00 C318.32,425.23 325.44,414.00 326.44,414.02 C327.53,414.04 334.86,426.09 345.58,445.50 C351.78,456.72 354.04,458.96 359.18,458.99 C361.10,459.00 362.06,458.36 362.54,456.75 ZM 631.15 705.97 C635.96,706.97 646.98,706.33 650.95,704.84 C658.68,701.92 662.69,692.66 661.63,680.13 C660.89,671.34 657.67,664.93 652.71,662.33 C648.64,660.20 634.97,659.39 629.24,660.93 C623.80,662.40 618.46,667.08 616.93,671.71 C616.28,673.69 615.77,679.11 615.80,683.74 C615.90,697.47 620.21,703.71 631.15,705.97 ZM 454.00 660.78 L 454.00 705.14 L 468.93 704.82 C482.26,704.53 484.16,704.27 486.68,702.40 C492.20,698.28 493.50,694.58 493.50,683.00 C493.50,673.72 493.23,672.06 491.15,668.73 C487.34,662.60 484.46,661.65 468.25,661.18 ZM 685.13 420.25 C685.65,419.36 685.51,419.23 684.71,419.87 C683.65,420.72 683.00,420.83 683.00,420.16 C683.00,419.56 682.11,418.59 681.03,418.01 C679.99,417.46 679.38,417.41 678.50,418.55 C679.19,417.30 679.91,416.01 680.68,414.69 C681.33,413.57 685.50,409.15 689.96,404.86 C698.91,396.25 709.36,390.35 721.00,387.32 C729.84,385.02 746.45,385.01 755.00,387.31 C774.56,392.56 789.83,404.79 798.60,422.20 L 802.03 429.00 L 773.37 429.00 L 771.72 432.45 C769.50,437.11 765.56,439.52 760.36,439.41 C755.36,439.29 751.65,437.11 748.96,432.70 C743.64,423.98 750.21,412.99 760.72,413.00 C764.52,413.01 769.57,416.28 771.48,419.96 L 773.05 423.00 L 782.03 423.00 C786.96,423.00 791.00,422.70 791.00,422.32 C791.00,420.54 783.20,410.64 779.00,407.10 C773.26,402.26 763.10,396.57 756.43,394.45 C753.72,393.59 746.78,392.63 741.00,392.31 C732.17,391.83 729.26,392.08 722.71,393.88 C706.25,398.39 693.32,407.67 685.13,420.25 ZM 795.57 491.85 C797.31,488.22 795.56,483.47 792.35,484.70 C791.61,484.98 791.26,485.61 791.56,486.10 C791.87,486.60 791.64,487.00 791.06,487.00 C790.48,487.00 790.00,488.12 790.00,489.50 C790.00,490.88 789.66,491.95 789.25,491.88 C788.72,491.80 788.31,491.78 788.00,491.82 C789.23,490.35 790.00,489.23 790.00,488.80 C790.00,488.36 786.19,488.00 781.53,488.00 C773.13,488.00 773.04,488.03 771.51,490.98 C767.20,499.32 753.03,498.77 748.55,490.09 C742.57,478.53 755.66,466.23 766.76,473.00 C768.56,474.09 770.78,476.56 771.70,478.49 L 773.37 482.00 L 801.12 482.00 L 797.82 488.25 C797.25,489.34 796.48,490.56 795.57,491.85 ZM 691.55 495.83 C689.54,493.66 687.70,491.38 686.03,488.99 C688.15,491.89 690.59,494.73 693.36,497.53 C703.69,507.95 714.14,513.39 728.57,515.84 C737.32,517.33 738.74,517.32 747.92,515.76 C758.64,513.93 766.74,510.56 774.99,504.51 C778.35,502.04 784.08,496.38 787.41,492.52 C787.48,492.78 787.67,493.11 788.00,493.50 C789.42,495.21 791.00,495.48 791.00,494.00 C791.00,493.45 791.70,493.00 792.56,493.00 C793.48,493.00 793.86,493.51 793.47,494.25 C793.26,494.67 793.38,494.65 793.75,494.28 C791.20,497.53 787.96,501.07 784.62,504.31 C784.25,504.48 783.64,504.92 782.95,505.55 C780.92,507.39 780.91,507.38 781.91,504.74 C782.60,502.92 782.59,501.87 781.90,501.44 C781.26,501.04 781.55,500.01 782.68,498.68 C783.68,497.52 782.26,498.50 779.52,500.86 C776.78,503.23 773.29,505.90 771.77,506.80 C770.25,507.70 769.00,508.81 769.00,509.28 C769.00,510.73 771.03,514.00 771.93,514.00 C772.37,514.00 775.24,512.16 778.42,509.85 C776.47,511.43 774.61,512.76 772.97,513.73 C769.95,515.50 764.11,518.18 759.99,519.67 C753.64,521.96 750.60,522.42 740.00,522.68 C728.94,522.96 726.52,522.70 719.04,520.44 C706.07,516.53 699.60,512.62 689.43,502.51 C687.84,500.93 686.35,499.35 684.96,497.76 C685.91,498.56 686.58,498.76 686.79,498.12 C687.00,497.50 687.63,497.27 688.19,497.62 C688.85,498.02 688.96,497.40 688.51,495.88 C687.94,493.97 688.77,494.45 692.64,498.25 C695.30,500.86 697.63,503.00 697.83,503.00 C698.03,503.00 695.20,499.77 691.55,495.83 ZM 850.00 438.00 L 850.00 444.00 L 795.00 444.00 L 795.00 438.00 ZM 850.00 468.00 L 850.00 474.00 L 823.17 474.00 C808.41,474.00 796.03,473.70 795.67,473.33 C795.30,472.97 795.00,471.62 795.00,470.33 L 795.00 468.00 ZM 765.55 431.55 C766.90,430.20 768.00,427.92 768.00,426.50 C768.00,422.72 763.85,419.00 759.62,419.00 C755.63,419.00 752.00,422.66 752.00,426.68 C752.00,430.12 756.24,434.00 760.00,434.00 C761.95,434.00 764.00,433.09 765.55,431.55 ZM 762.79 491.36 C765.09,490.74 768.00,486.41 768.00,483.61 C768.00,482.78 766.99,480.93 765.75,479.50 C762.57,475.80 757.47,475.76 754.33,479.40 C751.28,482.94 751.39,485.75 754.69,489.20 C757.44,492.07 758.79,492.43 762.79,491.36 ZM 698.00 403.41 C698.00,398.28 695.64,399.09 688.00,406.85 C683.88,411.04 681.65,413.46 683.06,412.23 C686.03,409.65 687.46,409.35 686.64,411.49 C686.31,412.35 686.58,412.88 687.29,412.74 C687.95,412.61 688.36,413.17 688.18,414.00 C688.01,414.83 690.15,413.27 692.93,410.54 C695.93,407.60 698.00,404.69 698.00,403.41 ZM 788.41 397.61 C788.56,397.66 788.68,397.66 788.75,397.59 C789.24,397.09 796.13,404.74 798.61,408.54 C799.60,410.03 800.75,410.62 802.05,410.28 C803.54,409.89 804.00,410.28 804.00,411.94 C804.00,413.37 803.59,413.87 802.81,413.38 C802.31,413.07 802.89,414.46 803.78,416.14 C799.63,409.28 794.36,403.00 788.41,397.61 ZM 678.06 488.58 C672.76,480.14 669.89,471.16 669.05,460.72 C669.77,469.55 672.02,477.08 676.26,485.32 C676.84,486.43 677.44,487.52 678.06,488.58 ZM 677.93 435.85 C679.47,430.36 681.58,425.40 684.14,421.76 C684.28,421.55 684.42,421.36 684.54,421.18 C681.72,425.68 679.50,430.60 677.93,435.85 ZM 676.60 468.53 C676.55,468.35 676.51,468.18 676.46,468.00 C675.21,463.17 674.87,457.25 675.31,451.14 C675.30,451.26 675.29,451.38 675.29,451.50 C674.98,457.56 675.40,463.20 676.60,468.53 ZM 671.10 435.93 C669.56,441.71 668.78,447.75 668.78,453.93 C668.78,447.41 669.46,441.71 671.10,435.93 ZM 809.02 427.17 C808.98,427.13 808.94,427.08 808.91,427.04 C808.30,426.23 808.13,425.10 807.85,423.50 C808.14,425.18 808.45,426.36 809.02,427.17 ZM 645.46 466.95 C644.88,465.83 644.50,465.01 644.50,464.79 C644.50,464.45 643.81,463.65 642.90,462.89 C643.81,463.65 644.51,464.45 644.51,464.79 C644.52,464.99 644.88,465.80 645.46,466.95 Z" fill="rgb(25,56,99)"/>
<path d="M 467.05 480.85 C450.61,491.93 436.90,501.00 436.58,501.00 C436.26,501.00 436.00,482.33 436.00,459.50 C436.00,436.67 436.22,418.00 436.49,418.00 C436.76,418.00 443.18,422.36 450.74,427.70 C465.59,438.17 484.93,451.64 491.72,456.24 C494.05,457.82 496.17,459.47 496.44,459.90 C496.71,460.34 483.49,469.77 467.05,480.85 ZM 744.54 467.55 C742.63,468.35 739.81,469.00 738.28,469.00 C734.79,468.99 729.64,465.91 727.39,462.47 C725.16,459.06 725.17,451.92 727.41,448.50 C729.23,445.71 736.06,442.06 739.50,442.03 C742.64,442.00 747.88,445.68 750.14,449.51 L 752.20 453.00 L 850.00 453.00 L 850.00 459.00 L 752.20 459.00 L 750.10 462.55 C748.90,464.59 746.53,466.72 744.54,467.55 Z" fill="rgb(208,143,97)"/>
<path d="M 0.00 512.00 L 0.00 0.00 L 512.00 0.00 L 1024.00 0.00 L 1024.00 512.00 L 1024.00 1024.00 L 512.00 1024.00 L 0.00 1024.00 L 0.00 512.00 ZM 653.20 720.88 C672.04,716.88 681.41,702.10 679.70,679.08 C678.50,662.98 673.04,653.60 661.88,648.45 C655.63,645.56 655.15,645.50 639.00,645.50 C622.92,645.50 622.34,645.57 616.25,648.39 C608.50,651.97 602.99,657.79 599.99,665.58 C596.75,674.00 596.69,691.87 599.89,700.14 C604.24,711.42 610.73,717.09 623.10,720.42 C629.63,722.17 645.92,722.42 653.20,720.88 ZM 359.95 714.00 C365.69,699.86 382.55,664.04 383.34,664.29 C384.04,664.51 396.00,690.31 396.00,691.59 C396.00,691.82 391.50,692.00 386.01,692.00 L 376.02 692.00 L 373.01 698.64 C371.35,702.29 370.00,705.65 370.00,706.11 C370.00,706.57 377.49,707.08 386.64,707.23 L 403.29 707.50 L 405.85 713.50 C407.25,716.80 408.87,719.83 409.45,720.23 C410.94,721.28 428.00,721.18 428.00,720.13 C428.00,719.20 414.82,690.58 399.49,658.22 L 393.67 645.94 L 383.13 646.22 L 372.59 646.50 L 361.34 670.50 C345.87,703.50 339.00,718.73 339.00,720.00 C339.00,720.71 342.12,720.98 348.16,720.79 L 357.31 720.50 L 359.95 714.00 ZM 492.38 718.08 C500.19,715.00 505.10,710.37 508.61,702.76 C511.35,696.83 511.50,695.78 511.50,682.98 C511.50,669.69 511.44,669.34 508.19,662.73 C504.64,655.53 501.37,652.44 493.44,648.78 C488.76,646.62 487.10,646.48 462.25,646.18 L 436.00 645.85 L 436.00 682.76 C436.00,703.06 436.34,720.01 436.75,720.42 C437.16,720.83 448.52,721.00 462.00,720.78 C484.76,720.42 486.92,720.23 492.38,718.08 ZM 579.26 718.15 C585.56,715.05 589.05,709.24 589.73,700.71 C590.64,689.25 586.76,681.60 578.03,677.64 C574.30,675.95 570.71,675.49 557.66,675.04 C542.54,674.52 541.73,674.39 539.91,672.14 C537.44,669.09 537.48,665.52 540.00,663.00 C541.88,661.12 543.33,661.00 564.00,661.00 L 586.00 661.00 L 586.00 653.50 L 586.00 646.00 L 560.75 646.02 C532.64,646.05 530.10,646.53 524.75,652.89 C518.28,660.58 518.42,674.85 525.05,682.40 C530.30,688.39 536.20,690.10 553.70,690.74 C567.79,691.26 569.22,691.48 570.55,693.38 C572.56,696.24 572.36,700.33 570.09,703.14 C568.20,705.48 567.98,705.50 545.09,705.80 L 522.00 706.10 L 522.00 713.61 L 522.00 721.12 L 548.25 720.81 C573.45,720.51 574.69,720.41 579.26,718.15 ZM 250.60 556.72 L 262.70 535.50 L 326.30 535.24 L 389.90 534.99 L 393.79 541.74 C395.92,545.46 401.41,555.14 405.99,563.25 L 414.31 578.00 L 440.76 578.00 C464.56,578.00 467.15,577.84 466.60,576.41 C466.03,574.91 457.40,559.88 431.94,516.00 C426.04,505.82 420.40,495.81 419.41,493.74 L 417.62 489.99 L 326.66 490.24 L 235.69 490.50 L 226.28 507.00 C221.10,516.08 210.16,535.00 201.97,549.06 C193.78,563.12 186.79,575.39 186.43,576.31 C185.84,577.87 187.83,578.00 212.14,577.97 L 238.50 577.94 L 250.60 556.72 ZM 594.50 575.50 C598.35,574.70 605.33,572.16 610.00,569.87 C616.78,566.54 620.24,563.96 627.11,557.10 C634.21,550.01 636.46,546.97 639.87,539.81 C645.28,528.42 647.21,519.88 647.15,507.50 C647.10,496.28 645.49,489.01 640.75,478.50 C637.89,472.16 635.33,469.21 613.42,447.00 C600.13,433.52 588.42,420.92 587.41,419.00 C586.18,416.66 585.56,413.34 585.54,409.00 C585.51,400.93 588.50,395.00 594.83,390.54 L 599.17 387.50 L 625.12 387.00 L 651.08 386.50 L 656.29 380.41 C659.16,377.06 667.91,367.07 675.75,358.22 C683.59,349.37 690.00,341.84 690.00,341.50 C690.00,341.16 667.84,341.04 640.75,341.24 C593.24,341.59 591.24,341.69 584.15,343.84 C571.10,347.79 562.28,353.45 552.71,364.03 C538.40,379.84 532.93,402.16 538.03,423.88 C541.48,438.60 544.77,443.22 570.54,469.61 C583.17,482.54 594.39,494.77 595.47,496.79 C596.60,498.90 597.59,503.02 597.79,506.48 C598.25,514.37 594.56,522.06 588.17,526.49 L 583.83 529.50 L 549.42 530.00 L 515.00 530.50 L 506.25 540.65 C496.53,551.92 479.74,571.27 476.65,574.75 L 474.65 577.00 L 531.08 576.98 C576.72,576.97 588.84,576.69 594.50,575.50 ZM 757.52 559.90 C758.54,554.34 759.85,549.66 760.44,549.49 C768.93,547.08 779.59,542.92 784.00,540.30 C784.28,540.14 788.30,542.88 792.95,546.40 L 801.40 552.79 L 812.96 542.53 C819.32,536.89 825.11,531.57 825.82,530.72 C826.92,529.40 826.34,527.79 822.12,520.33 L 817.13 511.50 L 819.13 508.50 C820.23,506.85 823.02,501.58 825.32,496.80 L 829.50 488.10 L 839.75 488.05 L 850.00 488.00 L 850.00 485.00 L 850.00 482.00 L 829.75 482.01 L 809.50 482.03 L 806.60 488.06 C801.02,499.68 791.33,510.42 779.00,518.64 C767.25,526.47 746.50,531.91 733.72,530.51 C698.75,526.68 673.71,506.41 663.92,474.01 C661.02,464.41 660.72,445.96 663.30,436.00 C665.54,427.37 672.90,412.83 678.48,406.00 C687.92,394.47 703.88,384.33 719.00,380.25 C727.92,377.85 748.93,377.93 758.00,380.40 C776.02,385.31 793.56,399.08 804.00,416.50 C805.32,418.70 806.64,420.73 806.95,421.00 C807.25,421.27 807.66,422.40 807.85,423.50 C808.83,429.08 808.49,429.00 830.04,429.00 L 850.00 429.00 L 850.00 426.00 L 850.00 423.00 L 839.95 423.00 L 829.90 423.00 L 828.35 419.25 C825.34,411.98 821.93,405.18 819.54,401.65 L 817.12 398.08 L 822.06 389.50 C824.78,384.77 827.00,380.55 827.00,380.11 C827.00,378.76 801.98,356.49 800.59,356.61 C799.88,356.68 795.89,359.29 791.72,362.43 L 784.15 368.13 L 780.83 366.40 C779.00,365.44 773.47,363.22 768.54,361.45 L 759.59 358.24 L 757.69 348.12 L 755.79 338.00 L 738.01 338.00 L 720.22 338.00 L 719.54 341.75 C719.17,343.81 718.19,348.51 717.36,352.20 L 715.86 358.90 L 710.55 360.44 C707.63,361.29 701.95,363.33 697.91,364.97 C690.59,367.95 690.57,367.95 688.47,365.98 C687.32,364.89 685.89,364.00 685.31,364.00 C684.72,364.00 681.61,367.04 678.40,370.75 C675.18,374.46 669.01,381.41 664.69,386.19 C658.38,393.17 656.96,395.30 657.50,397.01 C657.92,398.31 657.61,399.80 656.73,400.82 C654.86,402.98 648.54,415.43 646.94,420.10 L 645.70 423.71 L 635.60 424.60 L 625.50 425.50 L 624.21 434.00 L 622.92 442.49 L 632.31 451.75 C637.47,456.84 641.43,461.01 641.10,461.03 C640.77,461.05 641.40,461.74 642.50,462.57 C643.60,463.41 644.50,464.40 644.50,464.79 C644.51,465.18 645.74,467.60 647.24,470.16 C653.79,481.30 657.39,494.81 658.00,510.50 C658.10,513.06 655.83,524.96 654.48,528.96 C653.28,532.53 653.23,533.65 654.24,534.63 C654.93,535.29 659.96,539.65 665.42,544.30 L 675.34 552.75 L 682.74 546.88 C686.80,543.64 690.72,541.00 691.44,541.00 C692.16,541.00 695.17,542.07 698.13,543.37 C701.08,544.68 706.12,546.57 709.33,547.58 C712.53,548.59 715.49,550.11 715.92,550.96 C716.34,551.81 717.49,556.44 718.47,561.25 L 720.25 570.00 L 737.96 570.00 L 755.67 570.00 L 757.52 559.90 ZM 487.00 541.64 C494.30,536.70 507.16,523.14 513.23,513.98 C539.30,474.65 537.75,422.73 509.37,385.00 C501.95,375.13 497.94,371.00 489.50,364.54 C474.58,353.12 459.41,346.39 442.09,343.52 C432.76,341.97 356.34,340.64 355.49,342.01 C355.24,342.42 360.73,352.66 367.69,364.78 L 380.34 386.82 L 407.92 387.25 C430.64,387.60 436.47,387.99 441.00,389.43 C457.61,394.75 471.63,406.35 478.76,420.71 C481.00,425.22 483.34,431.29 483.95,434.21 C484.98,439.08 485.57,439.87 491.28,444.10 C494.70,446.62 500.65,450.78 504.50,453.33 C514.66,460.07 515.55,460.75 515.00,461.26 C514.72,461.52 506.40,467.16 496.50,473.80 C484.62,481.77 477.68,487.10 476.10,489.47 C472.52,494.83 462.82,503.42 456.02,507.25 L 450.02 510.64 L 455.85 520.57 C459.05,526.03 464.25,534.91 467.40,540.31 L 473.13 550.11 L 477.82 547.40 C480.39,545.91 484.52,543.31 487.00,541.64 ZM 759.99 519.67 C764.11,518.18 769.95,515.50 772.97,513.73 C780.87,509.09 793.86,495.77 797.82,488.25 L 801.12 482.00 L 787.24 482.00 L 773.37 482.00 L 771.70 478.49 C770.78,476.56 768.56,474.09 766.76,473.00 C755.66,466.23 742.57,478.53 748.55,490.09 C753.03,498.77 767.20,499.32 771.51,490.98 C773.04,488.03 773.13,488.00 781.53,488.00 C786.19,488.00 790.00,488.36 790.00,488.80 C790.00,490.34 779.93,500.88 774.99,504.51 C766.74,510.56 758.64,513.93 747.92,515.76 C738.74,517.32 737.32,517.33 728.57,515.84 C714.14,513.39 703.69,507.95 693.36,497.53 C680.02,484.06 674.36,469.65 675.29,451.50 C676.73,423.27 694.56,401.60 722.71,393.88 C729.26,392.08 732.17,391.83 741.00,392.31 C746.78,392.63 753.72,393.59 756.43,394.45 C763.10,396.57 773.26,402.26 779.00,407.10 C783.20,410.64 791.00,420.54 791.00,422.32 C791.00,422.70 786.96,423.00 782.03,423.00 L 773.05 423.00 L 771.48 419.96 C769.57,416.28 764.52,413.01 760.72,413.00 C750.21,412.99 743.64,423.98 748.96,432.70 C751.65,437.11 755.36,439.29 760.36,439.41 C765.56,439.52 769.50,437.11 771.72,432.45 L 773.37 429.00 L 787.70 429.00 L 802.03 429.00 L 798.60 422.20 C789.83,404.79 774.56,392.56 755.00,387.31 C746.45,385.01 729.84,385.02 721.00,387.32 C709.36,390.35 698.91,396.25 689.96,404.86 C685.50,409.15 681.33,413.57 680.68,414.69 C671.87,429.88 668.78,440.05 668.78,453.93 C668.78,473.61 674.95,488.12 689.43,502.51 C699.60,512.62 706.07,516.53 719.04,520.44 C726.52,522.70 728.94,522.96 740.00,522.68 C750.60,522.42 753.64,521.96 759.99,519.67 ZM 467.05 480.85 C483.49,469.77 496.71,460.34 496.44,459.90 C496.17,459.47 494.05,457.82 491.72,456.24 C484.93,451.64 465.59,438.17 450.74,427.70 C443.18,422.36 436.76,418.00 436.49,418.00 C436.22,418.00 436.00,436.67 436.00,459.50 C436.00,482.33 436.26,501.00 436.58,501.00 C436.90,501.00 450.61,491.93 467.05,480.85 ZM 850.00 471.00 L 850.00 468.00 L 822.50 468.00 L 795.00 468.00 L 795.00 470.33 C795.00,471.62 795.30,472.97 795.67,473.33 C796.03,473.70 808.41,474.00 823.17,474.00 L 850.00 474.00 L 850.00 471.00 ZM 301.47 465.75 C302.93,463.41 308.94,452.95 314.83,442.50 C320.71,432.05 325.97,423.55 326.51,423.61 C327.06,423.67 328.89,426.15 330.58,429.11 C346.02,456.08 353.45,468.61 354.39,469.23 C355.67,470.08 404.38,470.28 405.22,469.44 C405.53,469.14 396.74,453.05 385.68,433.69 C374.62,414.34 356.99,383.45 346.48,365.06 C335.98,346.67 326.94,331.48 326.40,331.30 C325.86,331.12 324.43,333.00 323.22,335.48 C322.02,337.96 311.96,355.85 300.88,375.24 C289.79,394.63 273.36,423.38 264.36,439.12 C255.36,454.87 248.00,468.26 248.00,468.87 C248.00,469.68 255.25,470.00 273.41,470.00 L 298.82 470.00 L 301.47 465.75 ZM 744.54 467.55 C746.53,466.72 748.90,464.59 750.10,462.55 L 752.20 459.00 L 801.10 459.00 L 850.00 459.00 L 850.00 456.00 L 850.00 453.00 L 801.10 453.00 L 752.20 453.00 L 750.14 449.51 C747.88,445.68 742.64,442.00 739.50,442.03 C736.06,442.06 729.23,445.71 727.41,448.50 C725.17,451.92 725.16,459.06 727.39,462.47 C729.64,465.91 734.79,468.99 738.28,469.00 C739.81,469.00 742.63,468.35 744.54,467.55 ZM 850.00 441.00 L 850.00 438.00 L 822.50 438.00 L 795.00 438.00 L 795.00 441.00 L 795.00 444.00 L 822.50 444.00 L 850.00 444.00 L 850.00 441.00 ZM 631.15 705.97 C620.21,703.71 615.90,697.47 615.80,683.74 C615.77,679.11 616.28,673.69 616.93,671.71 C618.46,667.08 623.80,662.40 629.24,660.93 C634.97,659.39 648.64,660.20 652.71,662.33 C657.67,664.93 660.89,671.34 661.63,680.13 C662.69,692.66 658.68,701.92 650.95,704.84 C646.98,706.33 635.96,706.97 631.15,705.97 ZM 454.00 682.96 L 454.00 660.78 L 468.25 661.18 C484.46,661.65 487.34,662.60 491.15,668.73 C493.23,672.06 493.50,673.72 493.50,683.00 C493.50,694.58 492.20,698.28 486.68,702.40 C484.16,704.27 482.26,704.53 468.93,704.82 L 454.00 705.14 L 454.00 682.96 Z" fill="rgb(253,254,254)"/>
</g>
</svg>